# Blender 3.3.1
# www.blender.org
mtllib computer.mtl
o Cube
v 1.005720 0.095712 -1.000000
v 0.950000 0.000000 -0.900000
v 1.005720 0.095712 1.000000
v 0.950000 0.000000 0.900000
v -0.005720 0.177316 -1.000000
v 0.050000 0.000000 -0.900000
v -0.005720 0.177316 1.000000
v 0.050000 0.000000 0.900000
v 0.271131 0.000000 -1.275629
v 0.360253 0.100087 -1.325629
v 0.271131 0.000000 -1.515629
v 0.360253 0.100087 -1.465629
v 0.641588 0.000000 -1.295629
v 0.591941 0.082940 -1.325629
v 0.641588 0.000000 -1.495629
v 0.591941 0.082940 -1.465629
v 0.375075 0.075677 -1.377481
v 0.374922 0.075481 -1.395236
v 0.378796 0.076914 -1.377501
v 0.378643 0.076718 -1.395257
v 0.382203 0.078853 -1.377523
v 0.382050 0.078657 -1.395279
v 0.385167 0.081420 -1.377547
v 0.385014 0.081224 -1.395303
v 0.387573 0.084515 -1.377572
v 0.387420 0.084319 -1.395327
v 0.389329 0.088021 -1.377596
v 0.389176 0.087824 -1.395351
v 0.390367 0.091801 -1.377618
v 0.390215 0.091605 -1.395374
v 0.390648 0.095712 -1.377639
v 0.390496 0.095515 -1.395394
v 0.390161 0.099602 -1.377656
v 0.390008 0.099406 -1.395411
v 0.388924 0.103323 -1.377669
v 0.388771 0.103126 -1.395425
v 0.386985 0.106730 -1.377679
v 0.386832 0.106534 -1.395434
v 0.384418 0.109694 -1.377683
v 0.384265 0.109498 -1.395439
v 0.381323 0.112100 -1.377683
v 0.381170 0.111904 -1.395439
v 0.377817 0.113856 -1.377679
v 0.377664 0.113660 -1.395434
v 0.374037 0.114895 -1.377669
v 0.373884 0.114698 -1.395425
v 0.370126 0.115176 -1.377656
v 0.369973 0.114979 -1.395411
v 0.366236 0.114688 -1.377639
v 0.366083 0.114492 -1.395394
v 0.362515 0.113451 -1.377618
v 0.362363 0.113255 -1.395374
v 0.359108 0.111512 -1.377596
v 0.358955 0.111316 -1.395351
v 0.356144 0.108946 -1.377572
v 0.355991 0.108749 -1.395327
v 0.353738 0.105850 -1.377548
v 0.353585 0.105654 -1.395303
v 0.351982 0.102345 -1.377523
v 0.351829 0.102148 -1.395279
v 0.350943 0.098564 -1.377501
v 0.350791 0.098368 -1.395257
v 0.350663 0.094654 -1.377481
v 0.350510 0.094457 -1.395236
v 0.351150 0.090764 -1.377463
v 0.350997 0.090567 -1.395219
v 0.352387 0.087043 -1.377450
v 0.352234 0.086847 -1.395205
v 0.354326 0.083636 -1.377440
v 0.354173 0.083439 -1.395196
v 0.356893 0.080672 -1.377436
v 0.356740 0.080475 -1.395191
v 0.359988 0.078265 -1.377436
v 0.359836 0.078069 -1.395191
v 0.363494 0.076509 -1.377440
v 0.363341 0.076313 -1.395196
v 0.367274 0.075471 -1.377450
v 0.367122 0.075275 -1.395205
v 0.371185 0.075190 -1.377463
v 0.371032 0.074994 -1.395219
v -1.493348 0.000000 1.000000
v -1.288251 0.095712 0.250000
v -1.493348 0.000000 -1.000000
v -1.288251 0.095712 -0.250000
v -0.493348 0.000000 1.000000
v -1.038251 0.095712 0.250000
v -0.493348 0.000000 -1.000000
v -1.038251 0.095712 -0.250000
v -0.975159 0.445421 1.000000
v -1.083486 1.692535 1.000000
v -0.975159 0.445421 -1.000000
v -1.083486 1.692535 -1.000000
v -0.934834 0.486748 0.962318
v -1.036640 1.658780 0.962318
v -0.934834 0.486748 -0.962318
v -1.036640 1.658780 -0.962318
v -1.015436 1.698446 -1.000000
v -0.907109 0.451332 -1.000000
v -0.907109 0.451332 1.000000
v -1.015436 1.698446 1.000000
v -1.027870 1.259010 0.175000
v -1.027870 1.259010 -0.175000
v -1.014283 1.084538 -0.175000
v -1.014283 1.084538 0.175000
vn 0.0804 0.9968 -0.0000
vn -0.0252 -0.5908 0.8065
vn -0.9540 -0.2998 -0.0000
vn -0.0000 -1.0000 -0.0000
vn 0.8642 -0.5031 -0.0000
vn -0.0252 -0.5908 -0.8065
vn -0.7468 0.6650 -0.0000
vn 0.0417 0.3926 -0.9188
vn 0.8580 0.5136 -0.0000
vn 0.0417 0.3926 0.9188
vn 0.0738 0.9973 -0.0000
vn 0.3155 -0.9489 0.0078
vn 0.4946 -0.8691 0.0054
vn 0.6547 -0.7559 0.0027
vn 0.7895 -0.6137 -0.0000
vn 0.8941 -0.4479 -0.0027
vn 0.9643 -0.2649 -0.0054
vn 0.9974 -0.0717 -0.0078
vn 0.9922 0.1243 -0.0099
vn 0.9489 0.3155 -0.0117
vn 0.8691 0.4945 -0.0129
vn 0.7559 0.6546 -0.0137
vn 0.6136 0.7895 -0.0140
vn 0.4478 0.8940 -0.0137
vn 0.2648 0.9642 -0.0129
vn 0.0716 0.9974 -0.0117
vn -0.1244 0.9922 -0.0099
vn -0.3155 0.9489 -0.0078
vn -0.4946 0.8691 -0.0054
vn -0.6546 0.7559 -0.0027
vn -0.7895 0.6137 -0.0000
vn -0.8941 0.4479 0.0027
vn -0.9643 0.2649 0.0054
vn -0.9974 0.0717 0.0078
vn -0.9922 -0.1243 0.0099
vn -0.9489 -0.3155 0.0117
vn -0.8691 -0.4945 0.0129
vn -0.7559 -0.6546 0.0137
vn -0.6136 -0.7895 0.0140
vn -0.4479 -0.8940 0.0137
vn -0.2648 -0.9642 0.0129
vn -0.0038 -0.0049 -1.0000
vn -0.0716 -0.9974 0.0117
vn 0.1244 -0.9922 0.0099
vn 0.0038 0.0049 1.0000
vn -0.4229 0.9062 -0.0000
vn -0.0000 0.9920 -0.1266
vn 0.1730 0.9849 -0.0000
vn -0.0000 0.9920 0.1266
vn -0.9759 0.2184 -0.0000
vn -0.9962 -0.0865 -0.0000
vn -0.0000 -0.0000 -1.0000
vn 0.9962 0.0865 -0.0000
vn -0.0000 -0.0000 1.0000
vn 0.0865 -0.9962 -0.0000
vn -0.0865 0.9962 -0.0000
vn 0.8347 0.0725 0.5460
vn 0.7874 0.6164 -0.0000
vn 0.8819 -0.4714 -0.0000
vn 0.8347 0.0725 -0.5460
vn 0.9970 0.0776 -0.0000
vn 0.0423 0.0639 0.9971
vn 0.0423 0.0639 -0.9971
vn 0.9997 -0.0242 -0.0000
vt 0.625000 0.500000
vt 0.375000 0.500000
vt 0.625000 0.750000
vt 0.375000 0.750000
vt 0.875000 0.500000
vt 0.625000 0.250000
vt 0.125000 0.500000
vt 0.375000 0.250000
vt 0.875000 0.750000
vt 0.625000 1.000000
vt 0.625000 0.000000
vt 0.375000 1.000000
vt 0.375000 0.000000
vt 0.125000 0.750000
vt 0.375000 0.000000
vt 0.375000 1.000000
vt 0.125000 0.750000
vt 0.625000 0.000000
vt 0.625000 1.000000
vt 0.875000 0.750000
vt 0.375000 0.250000
vt 0.125000 0.500000
vt 0.625000 0.250000
vt 0.875000 0.500000
vt 0.375000 0.750000
vt 0.625000 0.750000
vt 0.375000 0.500000
vt 0.625000 0.500000
vt 1.000000 0.500000
vt 0.000000 0.500000
vt 0.750000 0.490000
vt 1.000000 1.000000
vt 0.250000 0.490000
vt 0.000000 1.000000
vt 0.968750 0.500000
vt 0.796822 0.485388
vt 0.968750 1.000000
vt 0.296822 0.485388
vt 0.937500 0.500000
vt 0.841844 0.471731
vt 0.937500 1.000000
vt 0.341844 0.471731
vt 0.906250 0.500000
vt 0.883337 0.449553
vt 0.906250 1.000000
vt 0.383337 0.449553
vt 0.875000 0.500000
vt 0.919706 0.419706
vt 0.875000 1.000000
vt 0.419706 0.419706
vt 0.843750 0.500000
vt 0.949553 0.383337
vt 0.843750 1.000000
vt 0.449553 0.383337
vt 0.812500 0.500000
vt 0.971731 0.341844
vt 0.812500 1.000000
vt 0.471731 0.341844
vt 0.781250 0.500000
vt 0.985388 0.296822
vt 0.781250 1.000000
vt 0.485388 0.296822
vt 0.750000 0.500000
vt 0.990000 0.250000
vt 0.750000 1.000000
vt 0.490000 0.250000
vt 0.718750 0.500000
vt 0.985388 0.203178
vt 0.718750 1.000000
vt 0.485388 0.203178
vt 0.687500 0.500000
vt 0.971731 0.158156
vt 0.687500 1.000000
vt 0.471731 0.158156
vt 0.656250 0.500000
vt 0.949553 0.116663
vt 0.656250 1.000000
vt 0.449553 0.116663
vt 0.625000 0.500000
vt 0.919706 0.080294
vt 0.625000 1.000000
vt 0.419706 0.080294
vt 0.593750 0.500000
vt 0.883337 0.050447
vt 0.593750 1.000000
vt 0.383337 0.050447
vt 0.562500 0.500000
vt 0.841844 0.028269
vt 0.562500 1.000000
vt 0.341844 0.028269
vt 0.531250 0.500000
vt 0.796822 0.014612
vt 0.531250 1.000000
vt 0.296822 0.014612
vt 0.500000 0.500000
vt 0.750000 0.010000
vt 0.500000 1.000000
vt 0.250000 0.010000
vt 0.468750 0.500000
vt 0.703178 0.014612
vt 0.468750 1.000000
vt 0.203178 0.014612
vt 0.437500 0.500000
vt 0.658156 0.028269
vt 0.437500 1.000000
vt 0.158156 0.028269
vt 0.406250 0.500000
vt 0.616663 0.050447
vt 0.406250 1.000000
vt 0.116663 0.050447
vt 0.375000 0.500000
vt 0.580294 0.080294
vt 0.375000 1.000000
vt 0.080294 0.080294
vt 0.343750 0.500000
vt 0.550447 0.116663
vt 0.343750 1.000000
vt 0.050447 0.116663
vt 0.312500 0.500000
vt 0.528269 0.158156
vt 0.312500 1.000000
vt 0.028269 0.158156
vt 0.281250 0.500000
vt 0.514612 0.203178
vt 0.281250 1.000000
vt 0.014612 0.203178
vt 0.250000 0.500000
vt 0.510000 0.250000
vt 0.250000 1.000000
vt 0.010000 0.250000
vt 0.218750 0.500000
vt 0.514612 0.296822
vt 0.218750 1.000000
vt 0.014612 0.296822
vt 0.187500 0.500000
vt 0.528269 0.341844
vt 0.187500 1.000000
vt 0.028269 0.341844
vt 0.156250 0.500000
vt 0.550447 0.383337
vt 0.156250 1.000000
vt 0.050447 0.383337
vt 0.125000 0.500000
vt 0.580294 0.419706
vt 0.125000 1.000000
vt 0.080294 0.419706
vt 0.093750 0.500000
vt 0.616663 0.449553
vt 0.093750 1.000000
vt 0.116663 0.449553
vt 0.062500 0.500000
vt 0.658156 0.471731
vt 0.158156 0.471731
vt 0.062500 1.000000
vt 0.031250 0.500000
vt 0.703178 0.485388
vt 0.203178 0.485388
vt 0.031250 1.000000
vt 0.375000 0.000000
vt 0.375000 1.000000
vt 0.125000 0.750000
vt 0.625000 0.000000
vt 0.625000 1.000000
vt 0.375000 0.250000
vt 0.125000 0.500000
vt 0.625000 0.250000
vt 0.375000 0.750000
vt 0.625000 0.750000
vt 0.375000 0.500000
vt 0.625000 0.500000
vt 0.375000 0.000000
vt 0.375000 1.000000
vt 0.125000 0.750000
vt 0.625000 0.000000
vt 0.625000 1.000000
vt 0.875000 0.750000
vt 0.375000 0.250000
vt 0.125000 0.500000
vt 0.625000 0.250000
vt 0.875000 0.500000
vt 0.000096 0.000096
vt 0.382526 0.745290
vt 0.000096 0.999904
vt 0.617474 0.745290
vt 0.920155 0.000096
vt 0.382526 0.504710
vt 0.920155 0.999904
vt 0.617474 0.504710
vt 0.625000 0.500000
vt 0.375000 0.500000
vt 0.375000 0.750000
vt 0.625000 0.750000
vt 0.625000 0.000000
vt 0.875000 0.750000
vt 0.625000 1.000000
vt 0.875000 0.500000
vt 0.625000 0.250000
vt 0.625000 0.500000
vt 0.625000 0.750000
s 0
usemtl Material
f 1/1/1 5/5/1 7/9/1 3/3/1
f 4/4/2 3/3/2 7/10/2 8/12/2
f 8/13/3 7/11/3 5/6/3 6/8/3
f 6/7/4 2/2/4 4/4/4 8/14/4
f 2/2/5 1/1/5 3/3/5 4/4/5
f 6/8/6 5/6/6 1/1/6 2/2/6
f 11/21/8 12/23/8 16/28/8 15/27/8
f 15/27/9 16/28/9 14/26/9 13/25/9
f 13/25/10 14/26/10 10/19/10 9/16/10
f 11/22/4 15/27/4 13/25/4 9/17/4
f 17/29/12 18/32/12 20/37/12 19/35/12
f 19/35/13 20/37/13 22/41/13 21/39/13
f 21/39/14 22/41/14 24/45/14 23/43/14
f 23/43/15 24/45/15 26/49/15 25/47/15
f 25/47/16 26/49/16 28/53/16 27/51/16
f 27/51/17 28/53/17 30/57/17 29/55/17
f 29/55/18 30/57/18 32/61/18 31/59/18
f 31/59/19 32/61/19 34/65/19 33/63/19
f 33/63/20 34/65/20 36/69/20 35/67/20
f 35/67/21 36/69/21 38/73/21 37/71/21
f 37/71/22 38/73/22 40/77/22 39/75/22
f 39/75/23 40/77/23 42/81/23 41/79/23
f 41/79/24 42/81/24 44/85/24 43/83/24
f 43/83/25 44/85/25 46/89/25 45/87/25
f 45/87/26 46/89/26 48/93/26 47/91/26
f 47/91/27 48/93/27 50/97/27 49/95/27
f 49/95/28 50/97/28 52/101/28 51/99/28
f 51/99/29 52/101/29 54/105/29 53/103/29
f 53/103/30 54/105/30 56/109/30 55/107/30
f 55/107/31 56/109/31 58/113/31 57/111/31
f 57/111/32 58/113/32 60/117/32 59/115/32
f 59/115/33 60/117/33 62/121/33 61/119/33
f 61/119/34 62/121/34 64/125/34 63/123/34
f 63/123/35 64/125/35 66/129/35 65/127/35
f 65/127/36 66/129/36 68/133/36 67/131/36
f 67/131/37 68/133/37 70/137/37 69/135/37
f 69/135/38 70/137/38 72/141/38 71/139/38
f 71/139/39 72/141/39 74/145/39 73/143/39
f 73/143/40 74/145/40 76/149/40 75/147/40
f 75/147/41 76/149/41 78/154/41 77/151/41
f 20/38/42 18/33/42 80/157/42 78/153/42 76/150/42 74/146/42 72/142/42 70/138/42 68/134/42 66/130/42 64/126/42 62/122/42 60/118/42 58/114/42 56/110/42 54/106/42 52/102/42 50/98/42 48/94/42 46/90/42 44/86/42 42/82/42 40/78/42 38/74/42 36/70/42 34/66/42 32/62/42 30/58/42 28/54/42 26/50/42 24/46/42 22/42/42
f 77/151/43 78/154/43 80/158/43 79/155/43
f 79/155/44 80/158/44 18/34/44 17/30/44
f 17/31/45 19/36/45 21/40/45 23/44/45 25/48/45 27/52/45 29/56/45 31/60/45 33/64/45 35/68/45 37/72/45 39/76/45 41/80/45 43/84/45 45/88/45 47/92/45 49/96/45 51/100/45 53/104/45 55/108/45 57/112/45 59/116/45 61/120/45 63/124/45 65/128/45 67/132/45 69/136/45 71/140/45 73/144/45 75/148/45 77/152/45 79/156/45
f 84/166/50 82/162/50 101/193/50 102/197/50
f 89/171/51 90/174/51 92/179/51 91/177/51
f 91/177/52 92/179/52 97/189/52 98/190/52
f 99/191/54 100/192/54 90/175/54 89/172/54
f 91/178/55 98/190/55 99/191/55 89/173/55
f 97/189/56 92/180/56 90/176/56 100/192/56
f 96/188/57 95/186/57 98/190/57 97/189/57
f 94/184/59 96/188/59 97/189/59 100/192/59
f 93/182/60 94/184/60 100/192/60 99/191/60
f 103/198/61 102/196/61 101/194/61 104/199/61
f 82/163/62 86/168/62 104/199/62 101/195/62
f 88/170/63 84/166/63 102/197/63 103/198/63
f 86/168/64 88/170/64 103/198/64 104/199/64
usemtl screenshot
f 95/185/53 96/187/53 94/183/53 93/181/53
usemtl Material.001
f 9/15/7 10/18/7 12/23/7 11/21/7
f 16/28/11 12/24/11 10/20/11 14/26/11
f 81/159/46 82/162/46 84/166/46 83/164/46
f 83/164/47 84/166/47 88/170/47 87/169/47
f 87/169/48 88/170/48 86/168/48 85/167/48
f 85/167/49 86/168/49 82/163/49 81/160/49
f 83/165/4 87/169/4 85/167/4 81/161/4
f 95/186/58 93/182/58 99/191/58 98/190/58
