# Blender v2.93.6 OBJ File: 'werkplekPaars.blend'
# www.blender.org
mtllib werkplekPaars.mtl
o Cube
v 0.200000 1.000000 -1.000000
v 0.200000 -1.000000 -1.000000
v 0.200000 1.000000 1.000000
v 0.200000 -1.000000 1.000000
v -0.200000 1.000000 -1.000000
v -0.200000 -1.000000 -1.000000
v -0.200000 1.000000 1.000000
v -0.200000 -1.000000 1.000000
v 0.200000 -1.000000 -3.000000
v -0.200000 -1.000000 -3.000000
v 0.200000 1.000000 -3.000000
v -0.200000 1.000000 -3.000000
v -0.200000 -1.000000 3.000000
v -0.200000 1.000000 3.000000
v 0.200000 1.000000 3.000000
v 0.200000 -1.000000 3.000000
v 0.200000 3.000000 1.000000
v -0.200000 3.000000 1.000000
v 0.200000 3.000000 -1.000000
v -0.200000 3.000000 -1.000000
v -0.200000 1.000000 -3.000000
v 0.200000 1.000000 -3.000000
v -0.200000 3.000000 -3.000000
v 0.200000 3.000000 -3.000000
v 0.200000 1.000000 3.000000
v -0.200000 1.000000 3.000000
v 0.200000 3.000000 3.000000
v -0.200000 3.000000 3.000000
v -0.200000 1.150000 1.000000
v -0.200000 1.150000 -1.000000
v 0.200000 1.150000 -1.000000
v 0.200000 1.150000 1.000000
v -0.200000 1.150000 -3.000000
v 0.200000 1.150000 -3.000000
v -0.200000 1.150000 3.000000
v 0.200000 1.150000 3.000000
v 5.200000 1.000000 -1.000000
v 5.200000 1.000000 1.000000
v 5.200000 1.150000 1.000000
v 5.200000 1.150000 -1.000000
v 0.200000 0.300000 -1.000000
v -0.200000 0.300000 1.000000
v 0.200000 0.300000 1.000000
v -0.200000 0.300000 -1.000000
v 0.200000 0.300000 -3.000000
v -0.200000 0.300000 -3.000000
v -0.200000 0.300000 3.000000
v 0.200000 0.300000 3.000000
v 5.100000 0.300000 -1.000000
v 5.100000 -1.000000 -1.000000
v 5.100000 0.300000 -3.000000
v 5.100000 -1.000000 -3.000000
v 5.100000 0.300000 1.000000
v 5.100000 -1.000000 1.000000
v 5.100000 0.300000 3.000000
v 5.100000 -1.000000 3.000000
v -0.200000 1.000000 -2.700000
v -0.200000 -1.000000 -2.700000
v 0.200000 -1.000000 -2.700000
v 0.200000 1.000000 -2.700000
v 0.200000 0.300000 -2.700000
v -0.200000 0.300000 -2.700000
v 5.100000 -1.000000 -2.700000
v 5.100000 0.300000 -2.700000
v -0.200000 -1.000000 2.700000
v -0.200000 1.000000 2.700000
v 0.200000 -1.000000 2.700000
v 0.200000 1.000000 2.700000
v 0.200000 0.300000 2.700000
v -0.200000 0.300000 2.700000
v 5.100000 -1.000000 2.700000
v 5.100000 0.300000 2.700000
v -0.200000 -1.000000 0.200000
v 0.200000 1.000000 0.200000
v -0.200000 1.000000 0.200000
v 0.200000 -1.000000 0.200000
v 0.200000 3.000000 0.200000
v -0.200000 3.000000 0.200000
v 0.200000 1.150000 0.200000
v -0.200000 1.150000 0.200000
v 5.200000 1.000000 0.200000
v 5.200000 1.150000 0.200000
v 0.200000 0.300000 0.200000
v -0.200000 0.300000 0.200000
v -0.200000 1.000000 -0.100000
v 0.200000 -1.000000 -0.100000
v -0.200000 3.000000 -0.100000
v -0.200000 1.150000 -0.100000
v -0.200000 0.300000 -0.100000
v -0.200000 -1.000000 -0.100000
v 0.200000 1.000000 -0.100000
v 0.200000 3.000000 -0.100000
v 0.200000 1.150000 -0.100000
v 5.200000 1.000000 -0.100000
v 5.200000 1.150000 -0.100000
v 0.200000 0.300000 -0.100000
v 4.450000 1.150000 -1.000000
v 4.450000 1.000000 -1.000000
v 4.450000 1.000000 1.000000
v 4.450000 1.150000 1.000000
v 4.450000 1.000000 0.200000
v 4.450000 1.150000 0.200000
v 4.450000 1.150000 -0.100000
v 4.450000 1.000000 -0.100000
v 4.675000 1.150000 -1.000000
v 4.675000 1.000000 1.000000
v 4.675000 1.000000 0.200000
v 4.675000 1.150000 0.200000
v 4.675000 1.150000 -0.100000
v 4.675000 1.000000 -0.100000
v 4.675000 1.000000 -1.000000
v 4.675000 1.150000 1.000000
v 4.450000 -1.000000 -0.100000
v 4.450000 -1.000000 0.200000
v 4.675000 -1.000000 0.200000
v 4.675000 -1.000000 -0.100000
v 0.200000 3.000000 -2.700000
v 0.200000 3.000000 -3.000000
v 5.100000 3.000000 -2.700000
v 5.100000 3.000000 -3.000000
v 0.200000 3.000000 2.700000
v 0.200000 3.000000 3.000000
v 5.100000 3.000000 2.700000
v 5.100000 3.000000 3.000000
vt 0.625000 0.100000
vt 0.625000 0.000000
vt 0.625000 0.000000
vt 0.625000 0.100000
vt 0.537500 0.000000
vt 0.375000 0.000000
vt 0.375000 0.000000
vt 0.537500 0.000000
vt 0.537500 0.137500
vt 0.625000 0.137500
vt 0.625000 0.250000
vt 0.537500 0.250000
vt 0.125000 0.650000
vt 0.375000 0.650000
vt 0.375000 0.750000
vt 0.125000 0.750000
vt 0.537500 0.650000
vt 0.625000 0.650000
vt 0.625000 0.750000
vt 0.537500 0.750000
vt 0.537500 0.250000
vt 0.625000 0.250000
vt 0.625000 0.250000
vt 0.537500 0.250000
vt 0.625000 0.500000
vt 0.537500 0.500000
vt 0.375000 0.500000
vt 0.125000 0.500000
vt 0.125000 0.500000
vt 0.375000 0.500000
vt 0.875000 0.500000
vt 0.625000 0.500000
vt 0.875000 0.500000
vt 0.537500 0.500000
vt 0.375000 0.500000
vt 0.375000 0.500000
vt 0.537500 0.500000
vt 0.537500 0.750000
vt 0.625000 0.750000
vt 0.625000 1.000000
vt 0.537500 1.000000
vt 0.125000 0.750000
vt 0.375000 0.750000
vt 0.375000 0.750000
vt 0.125000 0.750000
vt 0.625000 0.750000
vt 0.875000 0.750000
vt 0.875000 0.750000
vt 0.537500 0.750000
vt 0.625000 0.650000
vt 0.875000 0.650000
vt 0.875000 0.750000
vt 0.625000 0.750000
vt 0.625000 0.612500
vt 0.625000 0.500000
vt 0.625000 0.500000
vt 0.625000 0.612500
vt 0.625000 0.250000
vt 0.625000 0.250000
vt 0.625000 0.250000
vt 0.625000 0.250000
vt 0.625000 0.000000
vt 0.625000 0.000000
vt 0.625000 0.000000
vt 0.625000 0.500000
vt 0.875000 0.500000
vt 0.875000 0.500000
vt 0.625000 0.500000
vt 0.875000 0.500000
vt 0.625000 0.500000
vt 0.625000 0.500000
vt 0.875000 0.500000
vt 0.875000 0.500000
vt 0.875000 0.750000
vt 0.625000 0.750000
vt 0.625000 0.750000
vt 0.875000 0.750000
vt 0.875000 0.750000
vt 0.625000 0.750000
vt 0.875000 0.750000
vt 0.625000 0.750000
vt 0.625000 0.000000
vt 0.625000 0.250000
vt 0.625000 0.100000
vt 0.537500 0.750000
vt 0.537500 0.750000
vt 0.375000 1.000000
vt 0.537500 0.500000
vt 0.375000 0.250000
vt 0.375000 0.250000
vt 0.375000 0.137500
vt 0.375000 0.250000
vt 0.625000 0.000000
vt 0.625000 0.000000
vt 0.537500 0.500000
vt 0.375000 0.500000
vt 0.375000 0.500000
vt 0.537500 0.500000
vt 0.375000 0.750000
vt 0.537500 0.750000
vt 0.537500 0.750000
vt 0.375000 0.750000
vt 0.537500 0.750000
vt 0.375000 0.750000
vt 0.537500 0.500000
vt 0.537500 0.500000
vt 0.125000 0.500000
vt 0.537500 0.000000
vt 0.375000 0.000000
vt 0.537500 0.100000
vt 0.375000 0.100000
vt 0.375000 0.612500
vt 0.537500 0.612500
vt 0.625000 0.137500
vt 0.625000 0.650000
vt 0.875000 0.612500
vt 0.625000 0.612500
vt 0.125000 0.612500
vt 0.625000 0.137500
vt 0.537500 0.500000
vt 0.537500 0.500000
vt 0.537500 0.750000
vt 0.537500 0.750000
vt 0.625000 0.500000
vt 0.625000 0.500000
vt 0.625000 0.500000
vt 0.625000 0.500000
vt 0.625000 0.612500
vt 0.625000 0.612500
vt 0.625000 0.750000
vt 0.625000 0.750000
vt 0.625000 0.750000
vt 0.625000 0.750000
vt 0.625000 0.650000
vt 0.625000 0.650000
vt 0.625000 0.612500
vt 0.625000 0.650000
vt 0.625000 0.650000
vt 0.625000 0.612500
vt 0.625000 0.612500
vt 0.625000 0.650000
vt 0.625000 0.612500
vt 0.625000 0.500000
vt 0.625000 0.650000
vt 0.625000 0.750000
vt 0.625000 0.500000
vt 0.625000 0.750000
vt 0.625000 0.612500
vt 0.625000 0.612500
vt 0.625000 0.650000
vt 0.625000 0.650000
vn -1.0000 0.0000 0.0000
vn 0.0000 -1.0000 0.0000
vn 1.0000 0.0000 0.0000
vn 0.0000 0.0000 -1.0000
vn 0.0000 1.0000 0.0000
vn 0.0000 0.0000 1.0000
usemtl Base_Color
s off
f 80/1/1 29/2/1 18/3/1 78/4/1
f 70/5/1 65/6/1 13/7/1 47/8/1
f 89/9/1 85/10/1 5/11/1 44/12/1
f 73/13/2 76/14/2 4/15/2 8/16/2
f 83/17/3 74/18/3 3/19/3 43/20/3
f 62/21/1 57/22/1 12/23/1 46/24/1
f 46/24/4 12/23/4 11/25/4 45/26/4
f 59/27/2 58/28/2 10/29/2 9/30/2
f 57/31/5 60/32/5 11/25/5 12/33/5
f 41/34/6 2/35/6 50/36/6 49/37/6
f 48/38/6 15/39/6 14/40/6 47/41/6
f 65/42/2 67/43/2 16/44/2 13/45/2
f 68/46/5 66/47/5 14/48/5 15/39/5
f 69/49/3 68/46/3 15/39/3 48/38/3
f 77/50/5 78/51/5 18/52/5 17/53/5
f 93/54/3 31/55/3 19/56/3 92/57/3
f 30/58/1 20/59/1 23/60/1 33/61/1
f 29/2/1 7/62/1 26/63/1 35/64/1
f 34/65/4 33/66/4 23/67/4 24/68/4
f 20/69/5 19/56/5 24/68/5 23/67/5
f 31/55/3 1/70/3 22/71/3 34/65/3
f 1/70/2 5/72/2 21/73/2 22/71/2
f 35/74/6 36/75/6 27/76/6 28/77/6
f 7/78/2 3/19/2 25/79/2 26/80/2
f 17/53/5 18/52/5 28/77/5 27/76/5
f 32/81/3 17/53/3 27/76/3 36/75/3
f 3/19/3 32/81/3 36/75/3 25/79/3
f 26/80/6 25/79/6 36/75/6 35/74/6
f 19/56/3 31/55/3 34/65/3 24/68/3
f 22/71/4 21/73/4 33/66/4 34/65/4
f 18/3/1 29/2/1 35/64/1 28/82/1
f 5/11/1 30/58/1 33/61/1 21/83/1
f 75/84/1 7/62/1 29/2/1 80/1/1
f 69/49/1 48/38/1 122/85/1 121/86/1
f 16/44/6 48/38/6 47/41/6 13/87/6
f 60/32/3 61/88/3 45/26/3 11/25/3
f 10/89/4 46/24/4 45/26/4 9/30/4
f 58/90/1 62/21/1 46/24/1 10/89/1
f 76/14/3 83/17/3 43/20/3 4/15/3
f 90/91/1 89/9/1 44/12/1 6/92/1
f 66/93/1 70/5/1 47/8/1 14/94/1
f 64/95/3 63/96/3 52/97/3 51/98/3
f 9/30/4 45/26/4 51/98/4 52/97/4
f 61/88/5 41/34/5 49/37/5 64/95/5
f 59/27/2 9/30/2 52/97/2 63/96/2
f 71/99/3 72/100/3 55/101/3 56/102/3
f 48/38/6 16/44/6 56/102/6 55/101/6
f 4/15/4 43/20/4 53/103/4 54/104/4
f 67/43/2 4/15/2 54/104/2 71/99/2
f 2/35/2 59/27/2 63/96/2 50/36/2
f 45/26/1 61/88/1 117/105/1 118/106/1
f 49/37/3 50/36/3 63/96/3 64/95/3
f 6/92/1 44/12/1 62/21/1 58/90/1
f 1/70/3 41/34/3 61/88/3 60/32/3
f 5/72/5 1/70/5 60/32/5 57/31/5
f 2/35/2 6/107/2 58/28/2 59/27/2
f 44/12/1 5/11/1 57/22/1 62/21/1
f 16/44/2 67/43/2 71/99/2 56/102/2
f 54/104/3 53/103/3 72/100/3 71/99/3
f 7/62/1 42/108/1 70/5/1 66/93/1
f 43/20/5 69/49/5 72/100/5 53/103/5
f 43/20/3 3/19/3 68/46/3 69/49/3
f 3/19/5 7/78/5 66/47/5 68/46/5
f 8/16/2 4/15/2 67/43/2 65/42/2
f 42/108/1 8/109/1 65/6/1 70/5/1
f 8/109/1 42/108/1 84/110/1 73/111/1
f 86/112/3 96/113/3 83/17/3 76/14/3
f 85/10/1 75/84/1 80/1/1 88/114/1
f 32/81/3 79/115/3 77/50/3 17/53/3
f 92/57/5 87/116/5 78/51/5 77/50/5
f 96/113/3 91/117/3 74/18/3 83/17/3
f 90/118/2 86/112/2 76/14/2 73/13/2
f 42/108/1 7/62/1 75/84/1 84/110/1
f 88/114/1 80/1/1 78/4/1 87/119/1
f 30/58/1 88/114/1 87/119/1 20/59/1
f 6/107/2 2/35/2 86/112/2 90/118/2
f 41/34/3 1/70/3 91/117/3 96/113/3
f 19/56/5 20/69/5 87/116/5 92/57/5
f 5/11/1 85/10/1 88/114/1 30/58/1
f 2/35/3 41/34/3 96/113/3 86/112/3
f 73/111/1 84/110/1 89/9/1 90/91/1
f 79/115/3 93/54/3 92/57/3 77/50/3
f 84/110/1 75/84/1 85/10/1 89/9/1
f 118/106/5 117/105/5 119/120/5 120/121/5
f 64/95/3 51/98/3 120/121/3 119/120/3
f 61/88/6 64/95/6 119/120/6 117/105/6
f 51/98/4 45/26/4 118/106/4 120/121/4
f 121/86/5 122/85/5 124/122/5 123/123/5
f 48/38/6 55/101/6 124/122/6 122/85/6
f 72/100/4 69/49/4 121/86/4 123/123/4
f 55/101/3 72/100/3 123/123/3 124/122/3
usemtl Desk_Color
f 111/124/4 105/125/4 40/126/4 37/127/4
f 94/128/3 37/127/3 40/126/3 95/129/3
f 112/130/6 106/131/6 38/132/6 39/133/6
f 108/134/5 112/130/5 39/133/5 82/135/5
f 110/136/2 111/124/2 37/127/2 94/128/2
f 106/131/2 107/137/2 81/138/2 38/132/2
f 109/139/5 108/134/5 82/135/5 95/129/5
f 38/132/3 81/138/3 82/135/3 39/133/3
f 105/125/5 109/139/5 95/129/5 40/126/5
f 107/137/2 110/136/2 94/128/2 81/138/2
f 81/138/3 94/128/3 95/129/3 82/135/3
f 74/18/2 91/117/2 104/140/2 101/141/2
f 31/55/5 93/54/5 103/142/5 97/143/5
f 93/54/5 79/115/5 102/144/5 103/142/5
f 3/19/2 74/18/2 101/141/2 99/145/2
f 91/117/2 1/70/2 98/146/2 104/140/2
f 79/115/5 32/81/5 100/147/5 102/144/5
f 32/81/6 3/19/6 99/145/6 100/147/6
f 1/70/4 31/55/4 97/143/4 98/146/4
f 104/140/4 110/136/4 116/148/4 113/149/4
f 97/143/5 103/142/5 109/139/5 105/125/5
f 103/142/5 102/144/5 108/134/5 109/139/5
f 99/145/2 101/141/2 107/137/2 106/131/2
f 104/140/2 98/146/2 111/124/2 110/136/2
f 102/144/5 100/147/5 112/130/5 108/134/5
f 100/147/6 99/145/6 106/131/6 112/130/6
f 98/146/4 97/143/4 105/125/4 111/124/4
f 114/150/2 113/149/2 116/148/2 115/151/2
f 101/141/1 104/140/1 113/149/1 114/150/1
f 110/136/3 107/137/3 115/151/3 116/148/3
f 107/137/6 101/141/6 114/150/6 115/151/6
