# Blender v2.93.6 OBJ File: 'pijl.blend'
# www.blender.org
mtllib pijl.mtl
o Cube_Cube.001
v -1.000000 -0.200000 1.000000
v -1.000000 0.200000 1.000000
v -1.000000 -0.200000 -1.000000
v -1.000000 0.200000 -1.000000
v 1.000000 -0.200000 1.000000
v 1.000000 0.200000 1.000000
v 1.000000 -0.200000 -1.000000
v 1.000000 0.200000 -1.000000
v -1.000000 0.200000 -3.000000
v -1.000000 -0.200000 -3.000000
v 1.000000 -0.200000 -3.000000
v 1.000000 0.200000 -3.000000
v 0.997756 -0.200000 -0.996216
v 0.997756 0.200000 -0.996216
v 0.997756 -0.200000 -2.996216
v 0.997756 0.200000 -2.996216
v 3.000000 0.200000 -1.000000
v 3.000000 -0.200000 -1.000000
v -1.000000 0.200000 -1.000000
v -1.000000 -0.200000 -1.000000
v -1.000000 0.200000 -3.000000
v -1.000000 -0.200000 -3.000000
v -3.000000 0.200000 -1.000000
v -3.000000 -0.200000 -1.000000
v 3.000000 0.200000 -1.000000
v 1.000000 0.200000 -3.000000
v 1.000000 -0.200000 -3.000000
v 3.000000 -0.200000 -1.000000
v -1.000000 0.200000 -3.000000
v -3.000000 0.200000 -1.000000
v -3.000000 -0.200000 -1.000000
v -1.000000 -0.200000 -3.000000
v 0.000000 -0.200000 -1.000000
v 0.000000 0.200000 -1.000000
v 0.000000 -0.200000 1.000000
v 0.000000 0.200000 1.000000
v 0.000000 -0.200000 -3.000000
v 0.000000 0.200000 -3.000000
v 0.000000 -0.200000 -4.000000
v 0.000000 0.200000 -4.000000
v 0.000000 -0.200000 -4.000000
v 1.000000 -0.200000 -3.000000
v 1.000000 0.200000 -3.000000
v 0.000000 0.200000 -4.000000
v 0.000000 0.200000 -4.000000
v -1.000000 0.200000 -3.000000
v -1.000000 -0.200000 -3.000000
v 0.000000 -0.200000 -4.000000
vt 0.375000 0.000000
vt 0.625000 0.000000
vt 0.625000 0.250000
vt 0.375000 0.250000
vt 0.625000 0.500000
vt 0.375000 0.500000
vt 0.375000 0.500000
vt 0.625000 0.500000
vt 0.625000 0.750000
vt 0.375000 0.750000
vt 0.375000 0.875000
vt 0.625000 0.875000
vt 0.625000 1.000000
vt 0.375000 1.000000
vt 0.250000 0.500000
vt 0.250000 0.750000
vt 0.750000 0.500000
vt 0.875000 0.500000
vt 0.875000 0.750000
vt 0.750000 0.750000
vt 0.375000 0.500000
vt 0.250000 0.500000
vt 0.250000 0.500000
vt 0.250000 0.500000
vt 0.375000 0.500000
vt 0.125000 0.500000
vt 0.125000 0.500000
vt 0.625000 0.500000
vt 0.750000 0.500000
vt 0.625000 0.250000
vt 0.375000 0.250000
vt 0.625000 0.500000
vt 0.625000 0.500000
vt 0.375000 0.500000
vt 0.375000 0.500000
vt 0.625000 0.500000
vt 0.625000 0.500000
vt 0.375000 0.500000
vt 0.375000 0.500000
vt 0.125000 0.500000
vt 0.125000 0.500000
vt 0.125000 0.500000
vt 0.125000 0.500000
vt 0.125000 0.500000
vt 0.625000 0.250000
vt 0.375000 0.250000
vt 0.375000 0.250000
vt 0.625000 0.250000
vt 0.875000 0.500000
vt 0.875000 0.500000
vt 0.875000 0.500000
vt 0.875000 0.500000
vt 0.875000 0.500000
vt 0.875000 0.500000
vt 0.625000 0.250000
vt 0.375000 0.250000
vt 0.375000 0.250000
vt 0.625000 0.250000
vt 0.375000 0.250000
vt 0.625000 0.250000
vt 0.625000 0.500000
vt 0.750000 0.500000
vt 0.750000 0.500000
vt 0.875000 0.500000
vt 0.125000 0.500000
vt 0.250000 0.500000
vt 0.750000 0.500000
vt 0.625000 0.250000
vt 0.375000 0.250000
vt 0.125000 0.750000
vt 0.375000 0.375000
vt 0.625000 0.375000
vt 0.375000 0.375000
vt 0.625000 0.375000
vt 0.625000 0.375000
vt 0.375000 0.375000
vn -1.0000 0.0000 0.0000
vn 0.0000 0.0000 1.0000
vn 1.0000 0.0000 0.0000
vn 0.0000 -1.0000 0.0000
vn 0.0000 1.0000 0.0000
vn -0.8601 0.0000 -0.5101
vn 0.7071 0.0000 -0.7071
vn -0.7071 0.0000 -0.7071
usemtl Material.001
s off
f 1/1/1 2/2/1 4/3/1 3/4/1
f 8/5/2 7/6/2 18/7/2 17/8/2
f 7/6/3 8/5/3 6/9/3 5/10/3
f 35/11/2 36/12/2 2/13/2 1/14/2
f 33/15/4 7/6/4 5/10/4 35/16/4
f 34/17/5 4/18/5 2/19/5 36/20/5
f 11/21/4 37/22/4 39/23/4 41/24/4 42/25/4
f 33/15/4 3/26/4 10/27/4 37/22/4
f 34/17/5 8/5/5 12/28/5 38/29/5
f 3/4/2 4/3/2 19/30/2 20/31/2
f 12/28/4 8/5/4 14/32/4 16/33/4
f 7/6/5 11/21/5 15/34/5 13/35/5
f 8/5/6 7/6/6 13/35/6 14/32/6
f 12/28/5 8/5/5 17/8/5 25/36/5 26/37/5
f 7/6/4 11/21/4 27/38/4 28/39/4 18/7/4
f 17/8/2 18/7/2 28/39/2 25/36/2
f 22/40/4 20/41/4 24/42/4 31/43/4 32/44/4
f 9/45/2 10/46/2 22/47/2 21/48/2
f 4/18/2 9/49/2 21/50/2 19/51/2
f 10/27/2 3/26/2 20/41/2 22/40/2
f 19/51/5 21/50/5 29/52/5 30/53/5 23/54/5
f 20/31/2 19/30/2 23/55/2 24/56/2
f 21/48/2 22/47/2 32/57/2 29/58/2
f 25/36/7 28/39/7 27/38/7 26/37/7
f 11/21/2 12/28/2 26/37/2 27/38/2
f 29/58/8 32/57/8 31/59/8 30/60/8
f 24/56/2 23/55/2 30/60/2 31/59/2
f 12/28/2 11/21/2 42/25/2 43/61/2
f 9/49/5 38/29/5 40/62/5 45/63/5 46/64/5
f 37/22/4 10/27/4 47/65/4 48/66/4 39/23/4
f 38/29/5 12/28/5 43/61/5 44/67/5 40/62/5
f 10/46/2 9/45/2 46/68/2 47/69/2
f 4/18/5 34/17/5 38/29/5 9/49/5
f 7/6/4 33/15/4 37/22/4 11/21/4
f 8/5/5 34/17/5 36/20/5 6/9/5
f 3/26/4 33/15/4 35/16/4 1/70/4
f 5/10/2 6/9/2 36/12/2 35/11/2
f 43/61/7 42/25/7 41/71/7 44/72/7
f 39/73/2 40/74/2 44/72/2 41/71/2
f 45/75/8 48/76/8 47/69/8 46/68/8
f 48/76/2 45/75/2 40/74/2 39/73/2
