# Blender v2.93.6 OBJ File: 'showtafel.blend'
# www.blender.org
mtllib showtafel.mtl
o Cube
v 1.000000 1.000000 -1.000000
v 1.000000 -1.000000 -1.000000
v 1.000000 1.000000 1.000000
v 1.000000 -1.000000 1.000000
v -1.000000 1.000000 -1.000000
v -1.000000 -1.000000 -1.000000
v -1.000000 1.000000 1.000000
v -1.000000 -1.000000 1.000000
v 1.000000 4.000000 1.000000
v -1.000000 4.000000 1.000000
v 1.000000 4.000000 -1.000000
v -1.000000 4.000000 -1.000000
v 1.000000 0.800000 -1.000000
v -1.000000 0.800000 1.000000
v 1.000000 0.800000 1.000000
v -1.000000 0.800000 -1.000000
v 5.000000 1.000000 -1.000000
v 5.000000 1.000000 1.000000
v 5.000000 0.800000 -1.000000
v 5.000000 0.800000 1.000000
v -1.000000 0.800000 5.000000
v -1.000000 1.000000 5.000000
v 1.000000 1.000000 5.000000
v 1.000000 0.800000 5.000000
v -5.000000 0.800000 1.000000
v -5.000000 1.000000 1.000000
v -5.000000 1.000000 -1.000000
v -5.000000 0.800000 -1.000000
v -1.000000 1.000000 -5.000000
v 1.000000 1.000000 -5.000000
v 1.000000 0.800000 -5.000000
v -1.000000 0.800000 -5.000000
v 5.000000 1.000000 -1.000000
v 5.000000 0.800000 -1.000000
v 5.000000 1.000000 -5.000000
v 5.000000 0.800000 -5.000000
v 5.000000 1.000000 1.000000
v 5.000000 0.800000 1.000000
v 5.000000 1.000000 5.000000
v 5.000000 0.800000 5.000000
v -1.000000 0.800000 5.000000
v -1.000000 1.000000 5.000000
v -5.000000 0.800000 5.000000
v -5.000000 1.000000 5.000000
v -5.000000 1.000000 -1.000000
v -5.000000 0.800000 -1.000000
v -5.000000 1.000000 -5.000000
v -5.000000 0.800000 -5.000000
v 1.000000 6.000000 1.000000
v -1.000000 6.000000 1.000000
v 1.000000 6.000000 -1.000000
v -1.000000 6.000000 -1.000000
v -1.000000 3.700000 -1.000000
v 1.000000 3.700000 -1.000000
v 1.000000 3.700000 1.000000
v -1.000000 3.700000 1.000000
v 1.000000 4.000000 3.000000
v -1.000000 4.000000 3.000000
v 1.000000 3.700000 3.000000
v -1.000000 3.700000 3.000000
v -3.000000 4.000000 1.000000
v -3.000000 4.000000 -1.000000
v -3.000000 3.700000 -1.000000
v -3.000000 3.700000 1.000000
v -1.000000 4.000000 -3.000000
v 1.000000 4.000000 -3.000000
v -1.000000 3.700000 -3.000000
v 1.000000 3.700000 -3.000000
v 3.000000 4.000000 -1.000000
v 3.000000 4.000000 1.000000
v 3.000000 3.700000 1.000000
v 3.000000 3.700000 -1.000000
v 1.000000 3.700000 3.000000
v 1.000000 4.000000 3.000000
v 3.000000 3.700000 3.000000
v 3.000000 4.000000 3.000000
v -1.000000 4.000000 3.000000
v -1.000000 3.700000 3.000000
v -3.000000 4.000000 3.000000
v -3.000000 3.700000 3.000000
v -3.000000 3.700000 -1.000000
v -3.000000 4.000000 -1.000000
v -3.000000 3.700000 -3.000000
v -3.000000 4.000000 -3.000000
v 1.000000 4.000000 -3.000000
v 1.000000 3.700000 -3.000000
v 3.000000 4.000000 -3.000000
v 3.000000 3.700000 -3.000000
v -1.000000 5.800000 1.000000
v -1.000000 5.800000 -1.000000
v 1.000000 5.800000 1.000000
v 1.000000 5.800000 -1.000000
v -1.000000 6.000000 -2.000000
v 1.000000 6.000000 -2.000000
v -1.000000 5.800000 -2.000000
v 1.000000 5.800000 -2.000000
v 2.000000 6.000000 -1.000000
v 2.000000 6.000000 1.000000
v 2.000000 5.800000 1.000000
v 2.000000 5.800000 -1.000000
v 1.000000 6.000000 2.000000
v -1.000000 6.000000 2.000000
v -1.000000 5.800000 2.000000
v 1.000000 5.800000 2.000000
v -2.000000 6.000000 1.000000
v -2.000000 6.000000 -1.000000
v -2.000000 5.800000 1.000000
v -2.000000 5.800000 -1.000000
v -1.000000 6.000000 -2.000000
v -1.000000 5.800000 -2.000000
v -2.000000 6.000000 -2.000000
v -2.000000 5.800000 -2.000000
v 1.000000 6.000000 -2.000000
v 1.000000 5.800000 -2.000000
v 2.000000 6.000000 -2.000000
v 2.000000 5.800000 -2.000000
v -2.000000 5.800000 1.000000
v -2.000000 6.000000 1.000000
v -2.000000 5.800000 2.000000
v -2.000000 6.000000 2.000000
v 1.000000 5.800000 2.000000
v 1.000000 6.000000 2.000000
v 2.000000 5.800000 2.000000
v 2.000000 6.000000 2.000000
v 2.000000 0.800000 -1.000000
v 2.000000 -1.000000 -1.000000
v 2.000000 0.800000 1.000000
v 2.000000 -1.000000 1.000000
v 1.000000 0.800000 2.000000
v 1.000000 -1.000000 2.000000
v -1.000000 -1.000000 2.000000
v -1.000000 0.800000 2.000000
v -2.000000 -1.000000 -1.000000
v -2.000000 -1.000000 1.000000
v -2.000000 0.800000 -1.000000
v -2.000000 0.800000 1.000000
v 1.000000 -1.000000 -2.000000
v -1.000000 -1.000000 -2.000000
v 1.000000 0.800000 -2.000000
v -1.000000 0.800000 -2.000000
v -1.000000 0.800000 -2.000000
v -1.000000 -1.000000 -2.000000
v -2.000000 0.800000 -2.000000
v -2.000000 -1.000000 -2.000000
v 1.000000 0.800000 -2.000000
v 1.000000 -1.000000 -2.000000
v 2.000000 0.800000 -2.000000
v 2.000000 -1.000000 -2.000000
v -1.000000 -1.000000 2.000000
v -1.000000 0.800000 2.000000
v -2.000000 -1.000000 2.000000
v -2.000000 0.800000 2.000000
v 1.000000 0.800000 2.000000
v 1.000000 -1.000000 2.000000
v 2.000000 0.800000 2.000000
v 2.000000 -1.000000 2.000000
vt 0.625000 0.250000
vt 0.625000 0.250000
vt 0.625000 0.250000
vt 0.625000 0.250000
vt 0.600000 1.000000
vt 0.600000 0.750000
vt 0.600000 0.750000
vt 0.600000 1.000000
vt 0.625000 0.000000
vt 0.625000 0.250000
vt 0.625000 0.250000
vt 0.625000 0.000000
vt 0.125000 0.500000
vt 0.375000 0.500000
vt 0.375000 0.750000
vt 0.125000 0.750000
vt 0.625000 0.750000
vt 0.600000 0.750000
vt 0.625000 0.750000
vt 0.625000 0.500000
vt 0.600000 0.500000
vt 0.600000 0.500000
vt 0.625000 0.500000
vt 0.625000 0.250000
vt 0.625000 0.000000
vt 0.625000 0.000000
vt 0.625000 0.250000
vt 0.625000 0.750000
vt 0.625000 0.750000
vt 0.625000 0.750000
vt 0.625000 0.750000
vt 0.625000 0.250000
vt 0.625000 0.250000
vt 0.625000 0.250000
vt 0.625000 0.750000
vt 0.625000 0.750000
vt 0.375000 0.250000
vt 0.600000 0.250000
vt 0.600000 0.250000
vt 0.375000 0.250000
vt 0.600000 0.750000
vt 0.600000 0.500000
vt 0.375000 0.250000
vt 0.600000 0.250000
vt 0.600000 1.000000
vt 0.600000 0.750000
vt 0.600000 0.500000
vt 0.625000 0.500000
vt 0.625000 0.750000
vt 0.625000 1.000000
vt 0.600000 0.000000
vt 0.600000 0.000000
vt 0.625000 0.000000
vt 0.625000 1.000000
vt 0.600000 0.750000
vt 0.600000 0.750000
vt 0.600000 0.000000
vt 0.600000 0.250000
vt 0.625000 0.000000
vt 0.625000 0.000000
vt 0.600000 0.250000
vt 0.625000 0.250000
vt 0.625000 0.500000
vt 0.600000 0.500000
vt 0.625000 0.250000
vt 0.625000 0.250000
vt 0.600000 0.500000
vt 0.625000 0.500000
vt 0.625000 0.750000
vt 0.625000 0.750000
vt 0.600000 0.000000
vt 0.600000 0.000000
vt 0.600000 0.250000
vt 0.600000 0.250000
vt 0.625000 0.500000
vt 0.875000 0.500000
vt 0.875000 0.750000
vt 0.625000 0.750000
vt 0.625000 0.750000
vt 0.625000 0.750000
vt 0.625000 0.750000
vt 0.625000 0.500000
vt 0.875000 0.500000
vt 0.625000 0.750000
vt 0.625000 0.500000
vt 0.625000 0.500000
vt 0.625000 0.000000
vt 0.625000 1.000000
vt 0.625000 1.000000
vt 0.625000 1.000000
vt 0.625000 1.000000
vt 0.625000 0.000000
vt 0.625000 0.000000
vt 0.625000 0.000000
vt 0.625000 0.000000
vt 0.625000 0.000000
vt 0.625000 0.000000
vt 0.625000 0.000000
vt 0.625000 0.500000
vt 0.625000 0.250000
vt 0.625000 0.500000
vt 0.625000 0.500000
vt 0.625000 0.750000
vt 0.625000 0.500000
vt 0.625000 0.500000
vt 0.625000 0.750000
vt 0.625000 0.500000
vt 0.625000 0.500000
vt 0.625000 0.750000
vt 0.625000 0.750000
vt 0.625000 0.000000
vt 0.625000 0.000000
vt 0.625000 0.250000
vt 0.625000 0.250000
vt 0.625000 0.500000
vt 0.625000 0.500000
vt 0.625000 0.500000
vt 0.625000 1.000000
vt 0.625000 0.500000
vt 0.625000 0.250000
vt 0.625000 0.250000
vt 0.625000 0.250000
vt 0.625000 0.750000
vt 0.625000 0.500000
vt 0.625000 0.750000
vt 0.625000 0.750000
vt 0.625000 0.500000
vt 0.625000 0.500000
vt 0.625000 1.000000
vt 0.625000 1.000000
vt 0.875000 0.750000
vt 0.875000 0.750000
vt 0.875000 0.750000
vt 0.625000 0.000000
vt 0.625000 0.250000
vt 0.625000 0.000000
vt 0.625000 0.250000
vt 0.625000 0.250000
vt 0.875000 0.500000
vt 0.875000 0.750000
vt 0.625000 0.250000
vt 0.625000 0.250000
vt 0.875000 0.500000
vt 0.875000 0.500000
vt 0.625000 0.500000
vt 0.625000 0.500000
vt 0.625000 0.000000
vt 0.625000 0.000000
vt 0.625000 0.000000
vt 0.625000 0.000000
vt 0.625000 1.000000
vt 0.625000 1.000000
vt 0.625000 1.000000
vt 0.625000 0.750000
vt 0.625000 0.750000
vt 0.375000 0.500000
vt 0.375000 0.750000
vt 0.600000 0.750000
vt 0.375000 0.750000
vt 0.600000 0.500000
vt 0.600000 0.500000
vt 0.375000 0.750000
vt 0.375000 1.000000
vt 0.375000 0.000000
vt 0.375000 0.000000
vt 0.600000 0.000000
vt 0.125000 0.750000
vt 0.375000 0.000000
vt 0.600000 0.000000
vt 0.600000 0.250000
vt 0.375000 0.250000
vt 0.125000 0.750000
vt 0.125000 0.750000
vt 0.125000 0.750000
vt 0.125000 0.500000
vt 0.600000 0.500000
vt 0.375000 0.500000
vt 0.125000 0.500000
vt 0.375000 0.250000
vt 0.600000 0.250000
vt 0.125000 0.500000
vt 0.125000 0.500000
vt 0.375000 0.500000
vt 0.375000 0.500000
vt 0.375000 0.000000
vt 0.600000 0.000000
vt 0.600000 0.000000
vt 0.375000 0.000000
vt 0.600000 0.750000
vt 0.375000 0.750000
vn 0.0000 1.0000 0.0000
vn 0.0000 -1.0000 0.0000
vn 0.0000 0.0000 1.0000
vn 1.0000 0.0000 0.0000
vn 0.0000 0.0000 -1.0000
vn -1.0000 0.0000 0.0000
usemtl body
s off
f 12/1/1 65/2/1 84/3/1 82/4/1
f 14/5/2 15/6/2 24/7/2 21/8/2
f 7/9/1 5/10/1 27/11/1 26/12/1
f 6/13/2 2/14/2 4/15/2 8/16/2
f 3/17/3 15/6/3 20/18/3 18/19/3
f 1/20/3 13/21/3 34/22/3 33/23/3
f 90/24/2 89/25/2 107/26/2 108/27/2
f 55/28/4 9/29/4 57/30/4 59/31/4
f 12/1/5 53/32/5 63/33/5 62/34/5
f 9/29/6 55/28/6 73/35/6 74/36/6
f 6/37/6 16/38/6 140/39/6 138/40/6
f 13/21/1 15/6/1 127/41/1 125/42/1
f 16/38/4 6/37/4 142/43/4 141/44/4
f 15/6/1 14/5/1 132/45/1 129/46/1
f 19/47/4 17/48/4 18/19/4 20/18/4
f 13/21/5 1/20/5 17/48/5 19/47/5
f 1/20/1 3/17/1 18/19/1 17/48/1
f 15/6/2 13/21/2 19/47/2 20/18/2
f 24/7/3 23/49/3 22/50/3 21/8/3
f 7/9/6 14/51/6 21/52/6 22/53/6
f 3/17/1 7/54/1 22/50/1 23/49/1
f 24/7/2 15/6/2 38/55/2 40/56/2
f 25/57/6 26/12/6 27/11/6 28/58/6
f 7/9/1 26/12/1 44/59/1 42/60/1
f 5/10/5 16/38/5 28/58/5 27/11/5
f 16/38/2 14/51/2 25/57/2 28/58/2
f 32/61/5 29/62/5 30/63/5 31/64/5
f 5/10/1 29/62/1 47/65/1 45/66/1
f 5/10/1 1/20/1 30/63/1 29/62/1
f 13/21/2 16/38/2 32/61/2 31/64/2
f 33/23/4 34/22/4 36/67/4 35/68/4
f 31/64/5 30/63/5 35/68/5 36/67/5
f 13/21/2 31/64/2 36/67/2 34/22/2
f 30/63/1 1/20/1 33/23/1 35/68/1
f 38/55/4 37/69/4 39/70/4 40/56/4
f 23/49/3 24/7/3 40/56/3 39/70/3
f 3/17/1 23/49/1 39/70/1 37/69/1
f 15/6/5 3/17/5 37/69/5 38/55/5
f 41/71/3 42/60/3 44/59/3 43/72/3
f 14/51/4 7/9/4 42/60/4 41/71/4
f 25/57/2 14/51/2 41/71/2 43/72/2
f 26/12/6 25/57/6 43/72/6 44/59/6
f 46/73/6 45/66/6 47/65/6 48/74/6
f 16/38/3 5/10/3 45/66/3 46/73/3
f 29/62/5 32/61/5 48/74/5 47/65/5
f 32/61/2 16/38/2 46/73/2 48/74/2
f 51/75/1 52/76/1 50/77/1 49/78/1
f 91/79/4 49/78/4 101/80/4 104/81/4
f 52/76/1 51/75/1 94/82/1 93/83/1
f 51/75/1 49/78/1 98/84/1 97/85/1
f 3/17/4 1/20/4 54/86/4 55/28/4
f 5/10/6 7/9/6 56/87/6 53/32/6
f 7/54/3 3/17/3 55/28/3 56/88/3
f 1/20/5 5/10/5 53/32/5 54/86/5
f 60/89/3 59/31/3 57/30/3 58/90/3
f 56/88/2 55/28/2 59/31/2 60/89/2
f 9/29/1 10/91/1 58/90/1 57/30/1
f 10/92/6 56/87/6 60/93/6 58/94/6
f 63/33/6 64/95/6 61/96/6 62/34/6
f 10/92/1 12/1/1 62/34/1 61/96/1
f 53/32/2 56/87/2 64/95/2 63/33/2
f 10/92/1 61/96/1 79/97/1 77/98/1
f 68/99/5 67/100/5 65/2/5 66/101/5
f 54/86/2 53/32/2 67/100/2 68/99/2
f 12/1/1 11/102/1 66/101/1 65/2/1
f 11/102/4 54/86/4 68/99/4 66/101/4
f 71/103/4 72/104/4 69/105/4 70/106/4
f 55/28/2 54/86/2 72/104/2 71/103/2
f 11/102/1 9/29/1 70/106/1 69/105/1
f 11/102/1 69/105/1 87/107/1 85/108/1
f 74/36/3 73/35/3 75/109/3 76/110/3
f 70/106/1 9/29/1 74/36/1 76/110/1
f 71/103/4 70/106/4 76/110/4 75/109/4
f 55/28/2 71/103/2 75/109/2 73/35/2
f 78/111/3 77/98/3 79/97/3 80/112/3
f 61/96/6 64/95/6 80/112/6 79/97/6
f 56/87/4 10/92/4 77/98/4 78/111/4
f 64/95/2 56/87/2 78/111/2 80/112/2
f 81/113/6 82/4/6 84/3/6 83/114/6
f 53/32/3 12/1/3 82/4/3 81/113/3
f 67/100/2 53/32/2 81/113/2 83/114/2
f 65/2/5 67/100/5 83/114/5 84/3/5
f 86/115/5 85/108/5 87/107/5 88/116/5
f 72/104/2 54/86/2 86/115/2 88/116/2
f 54/86/6 11/102/6 85/108/6 86/115/6
f 69/105/4 72/104/4 88/116/4 87/107/4
f 9/29/4 11/102/4 92/117/4 91/79/4
f 11/102/5 12/1/5 90/24/5 92/117/5
f 10/91/3 9/29/3 91/79/3 89/118/3
f 12/1/6 10/92/6 89/25/6 90/24/6
f 96/119/5 95/120/5 93/121/5 94/82/5
f 92/117/2 90/24/2 95/120/2 96/119/2
f 51/75/4 92/117/4 96/119/4 94/82/4
f 90/24/6 52/122/6 93/121/6 95/120/6
f 99/123/4 100/124/4 97/85/4 98/84/4
f 91/79/2 99/123/2 123/125/2 121/126/2
f 97/85/4 100/124/4 116/127/4 115/128/4
f 91/79/2 92/117/2 100/124/2 99/123/2
f 103/129/3 104/81/3 101/80/3 102/130/3
f 102/131/1 50/77/1 118/132/1 120/133/1
f 49/78/1 50/77/1 102/131/1 101/80/1
f 89/118/2 91/79/2 104/81/2 103/129/2
f 108/27/6 107/26/6 105/134/6 106/135/6
f 89/25/3 50/136/3 105/134/3 107/26/3
f 52/122/4 90/24/4 110/137/4 109/138/4
f 50/77/1 52/76/1 106/139/1 105/140/1
f 109/138/5 110/137/5 112/141/5 111/142/5
f 108/27/6 106/135/6 111/142/6 112/141/6
f 106/139/1 52/76/1 109/143/1 111/144/1
f 90/24/2 108/27/2 112/141/2 110/137/2
f 114/145/5 113/146/5 115/128/5 116/127/5
f 92/117/6 51/75/6 113/146/6 114/145/6
f 100/124/2 92/117/2 114/145/2 116/127/2
f 51/75/1 97/85/1 115/128/1 113/146/1
f 118/147/6 117/148/6 119/149/6 120/150/6
f 103/129/3 102/130/3 120/151/3 119/152/3
f 50/136/5 89/25/5 117/148/5 118/147/5
f 89/118/2 103/129/2 119/152/2 117/153/2
f 122/154/3 121/126/3 123/125/3 124/155/3
f 98/84/1 49/78/1 122/154/1 124/155/1
f 49/78/6 91/79/6 121/126/6 122/154/6
f 99/123/4 98/84/4 124/155/4 123/125/4
f 126/156/4 125/42/4 127/41/4 128/157/4
f 128/157/4 127/41/4 155/158/4 156/159/4
f 13/21/1 125/42/1 147/160/1 145/161/1
f 4/15/2 2/14/2 126/156/2 128/157/2
f 130/162/3 129/46/3 132/45/3 131/163/3
f 14/51/6 8/164/6 131/165/6 132/166/6
f 8/16/2 4/15/2 130/162/2 131/167/2
f 4/15/4 15/6/4 129/46/4 130/162/4
f 134/168/6 136/169/6 135/170/6 133/171/6
f 134/172/2 8/16/2 149/173/2 151/174/2
f 14/51/1 16/38/1 135/170/1 136/169/1
f 6/13/2 8/16/2 134/172/2 133/175/2
f 138/40/5 140/39/5 139/176/5 137/177/5
f 2/14/2 6/13/2 138/178/2 137/177/2
f 13/21/4 2/14/4 137/177/4 139/176/4
f 16/38/1 13/21/1 139/176/1 140/39/1
f 141/44/5 142/43/5 144/179/5 143/180/5
f 135/170/1 16/38/1 141/44/1 143/180/1
f 133/171/6 135/170/6 143/180/6 144/179/6
f 6/13/2 133/175/2 144/181/2 142/182/2
f 146/183/5 145/161/5 147/160/5 148/184/5
f 2/14/6 13/21/6 145/161/6 146/183/6
f 125/42/4 126/156/4 148/184/4 147/160/4
f 126/156/2 2/14/2 146/183/2 148/184/2
f 149/185/3 150/186/3 152/187/3 151/188/3
f 8/164/4 14/51/4 150/186/4 149/185/4
f 14/51/1 136/169/1 152/187/1 150/186/1
f 136/169/6 134/168/6 151/188/6 152/187/6
f 153/189/3 154/190/3 156/159/3 155/158/3
f 4/15/2 128/157/2 156/159/2 154/190/2
f 127/41/1 15/6/1 153/189/1 155/158/1
f 15/6/6 4/15/6 154/190/6 153/189/6
o Cube.001
v 4.511558 0.964191 0.659871
v 4.166788 2.934250 0.659871
v 4.511558 0.964191 -0.659871
v 4.166788 2.934250 -0.659871
v 4.694404 0.996190 0.659871
v 4.349634 2.966249 0.659871
v 4.694404 0.996190 -0.659871
v 4.349634 2.966249 -0.659871
vt 0.375000 0.000000
vt 0.625000 0.000000
vt 0.625000 0.250000
vt 0.375000 0.250000
vt 0.625000 0.500000
vt 0.375000 0.500000
vt 0.625000 0.750000
vt 0.375000 0.750000
vt 0.625000 1.000000
vt 0.375000 1.000000
vt 0.125000 0.500000
vt 0.125000 0.750000
vt 0.875000 0.500000
vt 0.875000 0.750000
vn -0.9850 -0.1724 0.0000
vn 0.0000 0.0000 -1.0000
vn 0.9850 0.1724 0.0000
vn 0.0000 0.0000 1.0000
vn 0.1724 -0.9850 0.0000
vn -0.1724 0.9850 0.0000
usemtl Book1
s off
f 157/191/7 158/192/7 160/193/7 159/194/7
f 159/194/8 160/193/8 164/195/8 163/196/8
f 163/196/9 164/195/9 162/197/9 161/198/9
f 161/198/10 162/197/10 158/199/10 157/200/10
f 159/201/11 163/196/11 161/198/11 157/202/11
f 164/195/12 160/203/12 158/204/12 162/197/12
o Cube.002
v 2.961356 0.953495 4.499016
v 2.754110 2.940948 4.414872
v 3.801637 0.998074 3.482327
v 3.594392 2.985526 3.398183
v 3.103195 0.973286 4.617112
v 2.895949 2.960738 4.532968
v 3.943476 1.017864 3.600423
v 3.736230 3.005317 3.516279
vt 0.375000 0.000000
vt 0.625000 0.000000
vt 0.625000 0.250000
vt 0.375000 0.250000
vt 0.625000 0.500000
vt 0.375000 0.500000
vt 0.625000 0.750000
vt 0.375000 0.750000
vt 0.625000 1.000000
vt 0.375000 1.000000
vt 0.125000 0.500000
vt 0.125000 0.750000
vt 0.875000 0.500000
vt 0.875000 0.750000
vn -0.7641 -0.1066 -0.6362
vn 0.6367 0.0338 -0.7704
vn 0.7641 0.1066 0.6362
vn -0.6367 -0.0338 0.7704
vn 0.1036 -0.9937 0.0421
vn -0.1036 0.9937 -0.0421
usemtl Book2
s off
f 165/205/13 166/206/13 168/207/13 167/208/13
f 167/208/14 168/207/14 172/209/14 171/210/14
f 171/210/15 172/209/15 170/211/15 169/212/15
f 169/212/16 170/211/16 166/213/16 165/214/16
f 167/215/17 171/210/17 169/212/17 165/216/17
f 172/209/18 168/217/18 166/218/18 170/211/18
o Cube.003
v 3.897333 0.904731 -3.122466
v 3.446115 2.824819 -2.791309
v 3.275333 0.959093 -4.285168
v 2.824115 2.879180 -3.954011
v 4.055602 0.956112 -3.204731
v 3.604384 2.876200 -2.873574
v 3.433601 1.010474 -4.367434
v 2.982384 2.930562 -4.036276
vt 0.375000 0.000000
vt 0.625000 0.000000
vt 0.625000 0.250000
vt 0.375000 0.250000
vt 0.625000 0.500000
vt 0.375000 0.500000
vt 0.625000 0.750000
vt 0.375000 0.750000
vt 0.625000 1.000000
vt 0.375000 1.000000
vt 0.125000 0.500000
vt 0.125000 0.750000
vt 0.875000 0.500000
vt 0.875000 0.750000
vn -0.8526 -0.2768 0.4432
vn -0.4713 0.0412 -0.8810
vn 0.8526 0.2768 -0.4432
vn 0.4713 -0.0412 0.8810
vn 0.2256 -0.9600 -0.1656
vn -0.2256 0.9600 0.1656
usemtl Book3
s off
f 173/219/19 174/220/19 176/221/19 175/222/19
f 175/222/20 176/221/20 180/223/20 179/224/20
f 179/224/21 180/223/21 178/225/21 177/226/21
f 177/226/22 178/225/22 174/227/22 173/228/22
f 175/229/23 179/224/23 177/226/23 173/230/23
f 180/223/24 176/231/24 174/232/24 178/225/24
o Cube.004
v 2.079850 3.913141 2.657830
v 1.728526 5.876926 2.515988
v 2.650589 3.929306 1.467992
v 2.299264 5.893091 1.326150
v 2.244012 3.948232 2.737051
v 1.892688 5.912017 2.595209
v 2.814751 3.964397 1.547214
v 2.463426 5.928182 1.405372
vt 0.375000 0.000000
vt 0.625000 0.000000
vt 0.625000 0.250000
vt 0.375000 0.250000
vt 0.625000 0.500000
vt 0.375000 0.500000
vt 0.625000 0.750000
vt 0.375000 0.750000
vt 0.625000 1.000000
vt 0.375000 1.000000
vt 0.125000 0.500000
vt 0.125000 0.750000
vt 0.875000 0.500000
vt 0.875000 0.750000
vn -0.8844 -0.1890 -0.4268
vn 0.4325 0.0122 -0.9016
vn 0.8844 0.1890 0.4268
vn -0.4325 -0.0122 0.9016
vn 0.1757 -0.9819 0.0709
vn -0.1757 0.9819 -0.0709
usemtl Book1
s off
f 181/233/25 182/234/25 184/235/25 183/236/25
f 183/236/26 184/235/26 188/237/26 187/238/26
f 187/238/27 188/237/27 186/239/27 185/240/27
f 185/240/28 186/239/28 182/241/28 181/242/28
f 183/243/29 187/238/29 185/240/29 181/244/29
f 188/237/30 184/245/30 182/246/30 186/239/30
o Cube.005
v 2.389894 3.751154 -0.869641
v 2.182534 5.718514 -0.575537
v 2.137208 3.916576 -2.154360
v 1.929847 5.883935 -1.860256
v 2.571066 3.775115 -0.902190
v 2.363706 5.742475 -0.608086
v 2.318379 3.940537 -2.186908
v 2.111019 5.907897 -1.892804
vt 0.375000 0.000000
vt 0.625000 0.000000
vt 0.625000 0.250000
vt 0.375000 0.250000
vt 0.625000 0.500000
vt 0.375000 0.500000
vt 0.625000 0.750000
vt 0.375000 0.750000
vt 0.625000 1.000000
vt 0.375000 1.000000
vt 0.125000 0.500000
vt 0.125000 0.750000
vt 0.875000 0.500000
vt 0.875000 0.750000
vn -0.9760 -0.1291 0.1753
vn -0.1915 0.1253 -0.9735
vn 0.9760 0.1291 -0.1753
vn 0.1915 -0.1253 0.9735
vn 0.1037 -0.9837 -0.1471
vn -0.1037 0.9837 0.1471
usemtl Book3
s off
f 189/247/31 190/248/31 192/249/31 191/250/31
f 191/250/32 192/249/32 196/251/32 195/252/32
f 195/252/33 196/251/33 194/253/33 193/254/33
f 193/254/34 194/253/34 190/255/34 189/256/34
f 191/257/35 195/252/35 193/254/35 189/258/35
f 196/251/36 192/259/36 190/260/36 194/253/36
o Cube.006
v -1.479147 3.951341 -2.784239
v -1.479147 5.926237 -2.468348
v -0.159480 3.949136 -2.770454
v -0.159480 5.924032 -2.454563
v -1.481110 3.922024 -2.600954
v -1.481110 5.896920 -2.285063
v -0.161443 3.919819 -2.587169
v -0.161443 5.894715 -2.271278
vt 0.375000 0.000000
vt 0.625000 0.000000
vt 0.625000 0.250000
vt 0.375000 0.250000
vt 0.625000 0.500000
vt 0.375000 0.500000
vt 0.625000 0.750000
vt 0.375000 0.750000
vt 0.625000 1.000000
vt 0.375000 1.000000
vt 0.125000 0.500000
vt 0.125000 0.750000
vt 0.875000 0.500000
vt 0.875000 0.750000
vn 0.0106 0.1579 -0.9874
vn 0.9999 -0.0017 0.0104
vn -0.0106 -0.1579 0.9874
vn -0.9999 0.0017 -0.0104
vn 0.0000 -0.9874 -0.1579
vn -0.0000 0.9874 0.1579
usemtl Book2
s off
f 197/261/37 198/262/37 200/263/37 199/264/37
f 199/264/38 200/263/38 204/265/38 203/266/38
f 203/266/39 204/265/39 202/267/39 201/268/39
f 201/268/40 202/267/40 198/269/40 197/270/40
f 199/271/41 203/266/41 201/268/41 197/272/41
f 204/265/42 200/273/42 198/274/42 202/267/42
